<svg xmlns="http://www.w3.org/2000/svg" xml:space="preserve" viewBox="0 0 853.75769 404.74664">
  <defs>
    <clipPath id="a" clipPathUnits="userSpaceOnUse">
      <path d="M 0,1000 H 1000 V 0 H 0 Z" transform="translate(-790.13964 -535.42191)"/>
    </clipPath>
    <clipPath id="b" clipPathUnits="userSpaceOnUse">
      <path d="M 0,1000 H 1000 V 0 H 0 Z" transform="translate(-608.82234 -433.18551)"/>
    </clipPath>
    <clipPath id="c" clipPathUnits="userSpaceOnUse">
      <path d="M 0,1000 H 1000 V 0 H 0 Z" transform="translate(-690.08199 -437.20211)"/>
    </clipPath>
    <clipPath id="d" clipPathUnits="userSpaceOnUse">
      <path d="M 0,1000 H 1000 V 0 H 0 Z" transform="translate(-751.41699 -435.48051)"/>
    </clipPath>
  </defs>
  <path d="m 8967.1914,2104.227 h -123.6093 l 61.7968,-108.7813 z m -112.6875,-5.6563 h 101.75 l -50.875,-89.6562 z m 139.6368,5.6563 h -6.9844 v -106.4844 h 7.5468 l 45.7813,65.6406 45.6094,-65.6406 h 6.9687 v 106.4844 h -6.9687 v -95.1719 l -42.4063,60.75 h -6.5937 l -42.9531,-61.5156 z m 177.121,-106.4844 h 7.3438 l 53.9062,106.4844 h -7.5468 l -17.7032,-35.1875 h -64.6406 l -17.9062,35.1875 h -7.3438 z m -25.8125,65.7813 h 58.9844 l -29.5937,-58.4375 z m 0,0" aria-label="Ama" style="fill:#f4702d;fill-opacity:1;fill-rule:nonzero;stroke:#f4702d;stroke-width:1.20146;stroke-opacity:1" transform="translate(-8386.8748 -1975.8484)"/>
  <path d="m 8905.3815,1995.4418 -61.8053,108.7853 h 123.612 z m 0,13.4653 50.8773,89.6587 h -101.7533 z" style="fill:#f4702d;fill-opacity:1;stroke:#f4702d;stroke-width:9.99733;stroke-linecap:butt;stroke-linejoin:miter;stroke-miterlimit:10;stroke-dasharray:none;stroke-opacity:1" transform="translate(-8386.8748 -1975.8484)"/>
  <path d="m 8994.1315,2008.2947 42.964,61.5067 h 6.5947 l 42.3973,-60.7427 v 95.168 h 6.972 v -106.4893 h -6.972 l -45.6,65.6386 -45.7893,-65.6386 h -7.5387 v 106.4893 h 6.972 z" style="fill:#f4702d;fill-opacity:1;stroke:#f4702d;stroke-width:9.99733;stroke-linecap:butt;stroke-linejoin:miter;stroke-miterlimit:10;stroke-dasharray:none;stroke-opacity:1" transform="translate(-8386.8748 -1975.8484)"/>
  <path d="m 9117.3672,2104.227 h 7.3493 l 17.9,-35.1907 h 64.6334 l 17.712,35.1907 h 7.5386 l -53.892,-106.4893 h -7.3493 z m 57.472,-99.1453 29.584,58.4466 h -58.98 z" style="fill:#f4702d;fill-opacity:1;stroke:#f4702d;stroke-width:9.99733;stroke-linecap:butt;stroke-linejoin:miter;stroke-miterlimit:10;stroke-dasharray:none;stroke-opacity:1" transform="translate(-8386.8748 -1975.8484)"/>
  <path d="m 8954.1914,2130.9965 -0.1875,5.6563 -88.5781,95.1719 h 88.7656 v 5.6562 h -97.4218 v -5.6562 l 88.375,-95.1719 h -86.3125 v -5.6563 z m 40.6993,0 h 92.3281 v 5.6563 h -85.3594 v 43.1406 h 74.25 v 5.6719 h -74.25 v 46.3594 h 85.3594 v 5.6562 h -92.3281 z m 178.6367,0 c 9.539,0 18.3633,1.9375 26.4687,5.8125 8.1016,3.875 14.5391,9.1055 19.3125,15.6875 4.7813,6.5742 7.1719,13.7344 7.1719,21.4844 v 20.5 c 0,7.7617 -2.3906,14.9336 -7.1719,21.5156 -4.7734,6.5742 -11.2109,11.7969 -19.3125,15.6719 -8.1054,3.875 -16.9297,5.8125 -26.4687,5.8125 h -48.4375 v -106.4844 z m 45.9687,42.9844 c 0,-6.7266 -2.0742,-12.9453 -6.2187,-18.6563 -4.1485,-5.7187 -9.7657,-10.2578 -16.8594,-13.625 -7.0938,-3.3632 -14.7891,-5.0468 -23.0781,-5.0468 h -41.2657 v 95.1719 h 41.2657 c 8.289,0 15.9843,-1.6797 23.0781,-5.0469 7.0937,-3.375 12.7109,-7.9141 16.8594,-13.625 4.1445,-5.7071 6.2187,-11.9297 6.2187,-18.6719 z m 0,0" aria-label="zed" style="fill:#f4702d;fill-opacity:1;fill-rule:nonzero;stroke:#f4702d;stroke-width:1.20146;stroke-opacity:1" transform="translate(-8386.8748 -1975.8484)"/>
  <path d="m 8858.8385,2130.9926 v 5.66 h 86.304 l -88.3773,95.168 v 5.6613 h 97.4213 v -5.6613 h -88.7533 l 88.564,-95.168 0.1893,-5.66 z" style="fill:#f4702d;fill-opacity:1;stroke:#f4702d;stroke-width:9.99733;stroke-linecap:butt;stroke-linejoin:miter;stroke-miterlimit:10;stroke-dasharray:none;stroke-opacity:1" transform="translate(-8386.8748 -1975.8484)"/>
  <path d="m 8994.8855,2237.4822 h 92.3333 v -5.6613 h -85.3613 v -46.36 h 74.2427 v -5.6614 h -74.2427 v -43.1466 h 85.3613 v -5.66 h -92.3333 z" style="fill:#f4702d;fill-opacity:1;stroke:#f4702d;stroke-width:9.99733;stroke-linecap:butt;stroke-linejoin:miter;stroke-miterlimit:10;stroke-dasharray:none;stroke-opacity:1" transform="translate(-8386.8748 -1975.8484)"/>
  <path d="M 0,0 H -36.32 V -79.867 H 0 c 7.159,0 13.779,1.452 19.856,4.36 6.078,2.906 10.905,6.828 14.487,11.763 3.579,4.933 5.37,10.307 5.37,16.122 v 15.377 c 0,5.813 -1.791,11.188 -5.37,16.123 -3.582,4.934 -8.409,8.853 -14.487,11.762 C 13.779,-1.454 7.159,0 0,0 Z m 34.483,-47.622 c 0,-5.049 -1.554,-9.716 -4.663,-14 -3.109,-4.285 -7.327,-7.688 -12.649,-10.213 -5.323,-2.524 -11.094,-3.786 -17.312,-3.786 h -30.95 v 71.376 h 30.95 c 6.218,0 11.989,-1.263 17.312,-3.787 5.322,-2.525 9.54,-5.93 12.649,-10.213 3.109,-4.285 4.663,-8.951 4.663,-14 z" clip-path="url(#a)" style="fill:#f4702d;fill-opacity:1;stroke:#f4702d;stroke-width:7.498;stroke-linecap:butt;stroke-linejoin:miter;stroke-miterlimit:10;stroke-dasharray:none;stroke-opacity:1" transform="matrix(1.3333333 0 0 -1.3333333 786.6447 155.1442)"/>
  <path d="m 8931.7696,2267.3168 c 5.8945,2.4493 10.4414,5.8125 13.6406,10.0938 3.207,4.2812 4.8125,9.0742 4.8125,14.375 0,5 -1.6055,9.6211 -4.8125,13.8594 -3.1992,4.2304 -7.6211,7.5703 -13.2656,10.0156 6.6562,1.8359 12.1796,5.1992 16.5781,10.0937 4.3945,4.8985 6.5937,10.3047 6.5937,16.2188 0,5.3047 -1.6367,10.1992 -4.9062,14.6875 -3.2617,4.4922 -7.5938,7.9609 -13,10.4062 -2.7617,1.2188 -5.8399,2.1368 -9.2344,2.75 -3.3867,0.6172 -7.9062,0.9219 -13.5625,0.9219 h -55.0156 v -106.4844 h 52.375 c 8.289,0 14.8906,1.0235 19.7969,3.0625 z m -3.0157,43.9063 c 4.5196,-1.832 8.0977,-4.4844 10.7344,-7.9531 2.6328,-3.4688 3.9531,-7.2969 3.9531,-11.4844 0,-4.6875 -1.5117,-8.7891 -4.5312,-12.3125 -3.0117,-3.5195 -6.8399,-6.0938 -11.4844,-7.7188 -3.5117,-1.2265 -9.4141,-1.8437 -17.7031,-1.8437 h -43.3438 v 43.7656 h 46.7344 c 6.5313,0 11.7422,-0.8164 15.6406,-2.4531 z m 4.5157,51.5625 c 4.6445,-1.9375 8.3476,-4.7656 11.1093,-8.4844 2.7696,-3.7265 4.1563,-7.7851 4.1563,-12.1719 0,-4.5937 -1.4492,-8.75 -4.3438,-12.4687 -2.8867,-3.7266 -6.7773,-6.5078 -11.6718,-8.3438 -3.7735,-1.4257 -8.8594,-2.1406 -15.2657,-2.1406 h -50.875 v 46.0469 h 48.4219 c 4.7695,0 8.5352,-0.2031 11.2969,-0.6094 2.7695,-0.4062 5.1601,-1.0156 7.1719,-1.8281 z m 106.8398,-100.8281 c 9.8008,0 18.8477,1.9648 27.1406,5.8906 8.2891,3.9297 14.8516,9.2578 19.6875,15.9844 4.8321,6.7304 7.25,14.0742 7.25,22.0312 v 23.2656 c 0,7.9493 -2.4179,15.293 -7.25,22.0313 -4.8359,6.7305 -11.3984,12.0586 -19.6875,15.9844 -8.2929,3.9257 -17.3398,5.8906 -27.1406,5.8906 -9.793,0 -18.8359,-1.9649 -27.125,-5.8906 -8.293,-3.9258 -14.8594,-9.2539 -19.7031,-15.9844 -4.836,-6.7383 -7.25,-14.082 -7.25,-22.0313 v -23.2656 c 0,-7.957 2.414,-15.3008 7.25,-22.0312 4.8437,-6.7266 11.4101,-12.0547 19.7031,-15.9844 8.2891,-3.9258 17.332,-5.8906 27.125,-5.8906 z M 8993,2329.1293 c 0,6.9297 2.1016,13.3282 6.3125,19.2032 4.2071,5.8672 9.9219,10.5078 17.1406,13.9218 7.2266,3.418 15.1133,5.125 23.6563,5.125 8.5391,0 16.4219,-1.707 23.6406,-5.125 7.2266,-3.414 12.9453,-8.0546 17.1563,-13.9218 4.207,-5.875 6.3125,-12.2735 6.3125,-19.2032 v -23.2656 c 0,-6.9375 -2.1055,-13.3359 -6.3125,-19.2031 -4.211,-5.8633 -9.9297,-10.5039 -17.1563,-13.9219 -7.2187,-3.4141 -15.1015,-5.125 -23.6406,-5.125 -8.543,0 -16.4297,1.7109 -23.6563,5.125 -7.2187,3.418 -12.9335,8.0586 -17.1406,13.9219 -4.2109,5.8672 -6.3125,12.2656 -6.3125,19.2031 z m 234.793,-64.875 v 5.6563 h -49.5625 v 100.8281 h -6.7813 v -100.8281 h -49.5625 v -5.6563 z m 0,0" aria-label="bot" style="fill:#f4702d;fill-opacity:1;fill-rule:nonzero;stroke:#f4702d;stroke-width:1.20146;stroke-opacity:1" transform="translate(-8386.8748 -1975.8484)"/>
  <path d="m 0,0 c -3.675,1.529 -8.621,2.295 -14.84,2.295 h -39.288 v -79.867 h 41.267 c 4.24,0 7.632,0.229 10.175,0.688 2.544,0.459 4.852,1.148 6.925,2.066 4.05,1.836 7.301,4.435 9.752,7.803 2.448,3.366 3.674,7.037 3.674,11.016 0,4.436 -1.649,8.492 -4.946,12.164 -3.299,3.672 -7.444,6.196 -12.437,7.573 4.24,1.836 7.562,4.341 9.964,7.517 2.402,3.174 3.604,6.636 3.604,10.385 0,3.977 -1.202,7.574 -3.604,10.787 C 7.844,-4.36 4.427,-1.836 0,0 Z m -2.262,-32.934 c -2.921,-1.224 -6.832,-1.836 -11.729,-1.836 H -49.04 v 32.82 h 32.505 c 6.218,0 10.645,-0.459 13.284,-1.377 3.484,-1.225 6.36,-3.156 8.621,-5.796 2.261,-2.639 3.392,-5.719 3.392,-9.237 0,-3.138 -0.99,-6.007 -2.968,-8.607 -1.979,-2.601 -4.664,-4.59 -8.056,-5.967 z M 1.13,-71.605 c -1.508,-0.614 -3.299,-1.073 -5.37,-1.377 -2.073,-0.307 -4.9,-0.459 -8.48,-0.459 H -49.04 V -38.9 h 38.158 c 4.805,0 8.62,-0.537 11.447,-1.607 3.674,-1.378 6.594,-3.463 8.762,-6.255 2.166,-2.793 3.251,-5.909 3.251,-9.351 0,-3.29 -1.038,-6.331 -3.109,-9.123 -2.073,-2.794 -4.854,-4.916 -8.339,-6.369 z" clip-path="url(#b)" style="fill:#f4702d;fill-opacity:1;stroke:#f4702d;stroke-width:7.498;stroke-linecap:butt;stroke-linejoin:miter;stroke-miterlimit:10;stroke-dasharray:none;stroke-opacity:1" transform="matrix(1.3333333 0 0 -1.3333333 544.8883 291.4594)"/>
  <path d="m 0,0 c -7.349,0 -14.132,-1.474 -20.351,-4.418 -6.217,-2.946 -11.142,-6.942 -14.768,-11.991 -3.628,-5.05 -5.441,-10.558 -5.441,-16.525 v -17.442 c 0,-5.968 1.813,-11.476 5.441,-16.524 3.626,-5.049 8.551,-9.048 14.768,-11.993 6.219,-2.943 13.002,-4.418 20.351,-4.418 7.35,0 14.133,1.475 20.352,4.418 6.217,2.945 11.139,6.944 14.768,11.993 3.625,5.048 5.441,10.556 5.441,16.524 v 17.442 c 0,5.967 -1.816,11.475 -5.441,16.525 -3.629,5.049 -8.551,9.045 -14.768,11.991 C 14.133,-1.474 7.35,0 0,0 Z m -35.331,-50.376 v 17.442 c 0,5.202 1.577,10.001 4.734,14.402 3.156,4.397 7.442,7.878 12.861,10.442 5.417,2.562 11.328,3.844 17.736,3.844 6.406,0 12.317,-1.282 17.736,-3.844 5.417,-2.564 9.703,-6.045 12.862,-10.442 3.155,-4.401 4.734,-9.2 4.734,-14.402 v -17.442 c 0,-5.203 -1.579,-10.004 -4.734,-14.401 -3.159,-4.401 -7.445,-7.881 -12.862,-10.443 -5.419,-2.564 -11.33,-3.844 -17.736,-3.844 -6.408,0 -12.319,1.28 -17.736,3.844 -5.419,2.562 -9.705,6.042 -12.861,10.443 -3.157,4.397 -4.734,9.198 -4.734,14.401 z" clip-path="url(#c)" style="fill:#f4702d;fill-opacity:1;stroke:#f4702d;stroke-width:7.498;stroke-linecap:butt;stroke-linejoin:miter;stroke-miterlimit:10;stroke-dasharray:none;stroke-opacity:1" transform="matrix(1.3333333 0 0 -1.3333333 653.2345 286.1039)"/>
  <path d="m 0,0 v -4.245 h 37.168 v -75.622 h 5.088 V -4.245 H 79.425 V 0 Z" clip-path="url(#d)" style="fill:#f4702d;fill-opacity:1;stroke:#f4702d;stroke-width:7.498;stroke-linecap:butt;stroke-linejoin:miter;stroke-miterlimit:10;stroke-dasharray:none;stroke-opacity:1" transform="matrix(1.3333333 0 0 -1.3333333 735.0145 288.3994)"/>
  <path d="m 8484.2215,2149.8751 v 56.68 h 143.36 v 20 h -143.36 v 66.6933 h -20 v -66.6933 h -56.68 v 133.3733 h 220.04 v 20 h -240.04 v -403.4133 h 86.68 v 20 h -66.68 v 56.68 h 66.68 v 20 h -66.68 v 133.36 h 56.68 v -76.68 h 76.68 v -76.68 h 86.68 v 20 h -66.68 v 76.68 z" style="fill:#f4702d;fill-opacity:1;fill-rule:nonzero;stroke:#f4702d;stroke-width:1.33333;stroke-opacity:1" transform="translate(-8386.8748 -1975.8484)"/>
  <path d="m 8790.9416,1976.5151 v 403.4133 h -96.68 v -76.68 h -143.36 v -20 h 163.36 v 76.68 h 56.68 v -210.0533 h -56.68 v 66.68 h -20 v -66.68 h -66.68 v -20 h 143.36 v -133.36 h -56.68 v 66.68 h -20 v -66.68 h -143.36 v -20 z" style="fill:#f4702d;fill-opacity:1;fill-rule:nonzero;stroke:#f4702d;stroke-width:1.33333;stroke-opacity:1" transform="translate(-8386.8748 -1975.8484)"/>
</svg>
